<svg width="118" height="30" viewBox="0 0 118 30" fill="none" xmlns="http://www.w3.org/2000/svg">
<path d="M23.5 0H6.5C2.91015 0 0 2.91015 0 6.5V23.5C0 27.0899 2.91015 30 6.5 30H23.5C27.0899 30 30 27.0899 30 23.5V6.5C30 2.91015 27.0899 0 23.5 0Z" fill="#03A9F4"/>
<path d="M19.104 8.33813C19.6276 7.81372 19.5148 6.9324 18.8235 6.66702C17.8587 6.29668 16.8112 6.09375 15.7164 6.09375C10.9197 6.09375 7.03125 9.98887 7.03125 14.7937C7.03125 19.5986 10.9197 23.4937 15.7164 23.4937C16.8045 23.4937 17.8458 23.2933 18.8056 22.9273C19.4988 22.663 19.6126 21.78 19.0881 21.2546C18.7483 20.9142 18.2339 20.8347 17.7778 20.9866C17.1314 21.2019 16.44 21.3184 15.7214 21.3184C12.1239 21.3184 9.20756 18.3971 9.20756 14.7934C9.20756 11.1897 12.1239 8.26841 15.7214 8.26841C16.4452 8.26841 17.1414 8.38667 17.7918 8.60491C18.2483 8.75808 18.7637 8.6791 19.104 8.33813Z" fill="white"/>
<path d="M17.0312 14.8938C17.0312 15.5013 16.5388 15.9938 15.9312 15.9938C15.3237 15.9938 14.8312 15.5013 14.8312 14.8938C14.8312 14.2862 15.3237 13.7938 15.9312 13.7938C16.5388 13.7938 17.0312 14.2862 17.0312 14.8938Z" fill="white"/>
<path d="M17.6268 11.7486C17.2327 12.1402 17.2327 12.775 17.6268 13.1665C18.0208 13.5581 18.6597 13.5581 19.0537 13.1665L22.3357 9.90532C22.7298 9.51377 22.7298 8.87896 22.3357 8.4874C21.9417 8.09587 21.3028 8.09587 20.9088 8.4874L17.6268 11.7486Z" fill="white"/>
<path d="M17.6268 17.8389C17.2327 17.4473 17.2327 16.8125 17.6268 16.421C18.0208 16.0294 18.6597 16.0294 19.0537 16.421L22.3357 19.6822C22.7298 20.0737 22.7298 20.7085 22.3357 21.1001C21.9417 21.4916 21.3028 21.4916 20.9088 21.1001L17.6268 17.8389Z" fill="white"/>
<path d="M35.4985 15.2728C35.4985 11.9942 38.1082 9.40688 41.3201 9.40688C43.506 9.40688 45.3796 10.6113 46.3611 12.4625L44.3759 13.5554C43.7737 12.4179 42.6361 11.7042 41.2978 11.7042C39.3796 11.7042 37.9075 13.2878 37.9075 15.2505C37.9075 17.2356 39.3796 18.73 41.2978 18.73C42.5915 18.73 43.6622 18.1501 44.309 17.0795L46.3388 18.1501C45.3573 19.9567 43.4837 21.0496 41.3201 21.0496C38.1082 21.0496 35.4985 18.5515 35.4985 15.2728Z" fill="black"/>
<path d="M48.4088 4.70073H51.0854V20.8042H48.4088V4.70073Z" fill="black"/>
<path d="M53.1374 15.2728C53.1374 11.9942 55.7694 9.40688 58.9813 9.40688C62.2156 9.40688 64.8475 11.9942 64.8475 15.2728C64.8475 18.5515 62.2156 21.0273 58.9813 21.0273C55.7694 21.0273 53.1374 18.5515 53.1374 15.2728ZM55.5687 15.2505C55.5687 17.2133 57.0631 18.7077 58.9813 18.7077C60.8996 18.7077 62.4163 17.2133 62.4163 15.2505C62.4163 13.3101 60.8996 11.7042 58.9813 11.7042C57.0631 11.7042 55.5687 13.3101 55.5687 15.2505Z" fill="black"/>
<path d="M66.255 15.2728C66.255 11.9942 68.8647 9.40688 72.0766 9.40688C74.2625 9.40688 76.1361 10.6113 77.1176 12.4625L75.1324 13.5554C74.5302 12.4179 73.3926 11.7042 72.0543 11.7042C70.1361 11.7042 68.664 13.2878 68.664 15.2505C68.664 17.2356 70.1361 18.73 72.0543 18.73C73.348 18.73 74.4186 18.1501 75.0655 17.0795L77.0953 18.1501C76.1138 19.9567 74.2402 21.0496 72.0766 21.0496C68.8647 21.0496 66.255 18.5515 66.255 15.2728Z" fill="black"/>
<path d="M89.7839 9.51116L85.5445 14.0238L90.0501 20.8042H86.972L83.6932 15.6966L81.5742 17.9047V20.8042H78.8976V9.40688H81.5742V14.9606L86.6713 9.51116H89.7839Z" fill="black"/>
<path d="M93.2073 7.91251C92.2705 7.91251 91.5121 7.13187 91.5121 6.21741C91.5121 5.28064 92.2705 4.5223 93.2073 4.5223C94.1441 4.5223 94.9025 5.28064 94.9025 6.21741C94.9025 7.13187 94.1441 7.91251 93.2073 7.91251ZM91.869 20.8042V9.65223H94.5456V20.8042H91.869Z" fill="black"/>
<path d="M102.811 4.5C103.748 4.5 104.395 4.65613 104.863 4.94608V7.04266C104.529 6.90883 103.837 6.7081 103.302 6.7081C102.075 6.7081 101.362 7.288 101.362 8.42551V9.76375H104.93V11.8157H101.451V20.8042H98.7741V11.8157H96.7444V9.76375H98.7741V8.15786C98.7741 5.79363 100.335 4.5 102.811 4.5Z" fill="black"/>
<path d="M113.091 21.8525C112.065 24.6405 110.838 25.5996 108.674 25.5996C107.47 25.5996 106.622 25.332 105.953 24.7074L106.667 22.7447C107.157 23.3469 107.782 23.503 108.518 23.503C109.343 23.503 109.968 23.2131 110.414 22.0087L110.86 20.8935L109.656 18.0831L106.221 9.65223H109.187L111.507 16.1873L112.132 18.1724L112.845 16.0312L115.053 9.65223H117.797L113.091 21.8525Z" fill="black"/>
</svg>
